<svg width="14" height="11" xmlns="http://www.w3.org/2000/svg"><path d="M8.827343.2590884C8.464078.5987413 8.4398602.9383942 8.75469 1.278047l2.7971416 3.1927373H.7628568C.2542856 4.4707844 0 4.7085414 0 5.1840556c0 .475514.2542856.713271.7628568.713271h10.7889748L8.75469 9.090064c-.145306.1585047-.2058503.339653-.1816326.5434447.0242177.2037917.1089796.3622964.2542856.475514.1695237.1358612.3632651.19247.5812242.1698265.2179591-.0226435.3874829-.1018959.5085712-.237757l4.0322431-4.8570366-4.032243-4.789106C9.6023085.032653 9.2390434-.012634 8.827343.2590883z" fill="#2D7871" fill-rule="evenodd"/></svg>