<svg id="jpal-logo-swirl" data-name="J-PAL" xmlns="http://www.w3.org/2000/svg" viewBox="0 0 49.87 68.9"><defs><style>.cls-1{fill:#e35925}</style></defs><path class="cls-1" d="M19 38.08a4 4 0 0 0-.93 1.09 5.44 5.44 0 0 0-.57 1.28 10.46 10.46 0 0 0-.35 2.81 9 9 0 0 0 .4 2.74 8 8 0 0 0 .45 1.17 6.75 6.75 0 0 0 .72 1.16 8.28 8.28 0 0 0 1 1.06 7.44 7.44 0 0 0 5.1 2 6.89 6.89 0 0 0 1.44-.12A6.8 6.8 0 0 0 29 50.15l.19-.14.14-.09.17-.13c.13-.09.26-.22.43-.34s.32-.29.49-.47a7.53 7.53 0 0 0 1.06-1.32 6.67 6.67 0 0 0 .48-.88 4.46 4.46 0 0 0 .22-.5l.09-.26v-.27c0-.1.07-.19.09-.28a2.46 2.46 0 0 1 .07-.29l.06-.3v-.31a7.64 7.64 0 0 0 .09-1.28 8.23 8.23 0 0 0-.49-2.69 8.07 8.07 0 0 0-1.47-2.5l-.36-.39-.46-.52-1-1.08-1.8-2.17C16.68 22.41 6.49 11.26 5.88 11.58c-.25.13 6 7.17 6.32 7.55 1.41 1.86 4 5.05 7.26 8.85 1.61 1.91 3.37 4 5.21 6.09l2.79 3.22 1.42 1.63.26.3.12.13v.05l.13.17.12.17a6.65 6.65 0 0 1 .75 1.48 6.25 6.25 0 0 1 .32 1.58 6.77 6.77 0 0 1 0 .78v.75a5.42 5.42 0 0 1-.38 1.33 6.15 6.15 0 0 1-1.2 1.97l-.16.17-.14.2-.08.08-.07.06a1.85 1.85 0 0 0-.14.14c-.1.07-.18.15-.26.21l-.21.17a5.77 5.77 0 0 1-3.14 1.27 6.37 6.37 0 0 1-1.75 0c-.14 0-.29-.05-.42-.09h-.21l-.21-.06a7.85 7.85 0 0 1-.8-.32l-.4-.2-.19-.26h-.09l-.1-.07-.19-.12-.18-.14-.09-.07-.09-.07-.18-.15-.17-.16-.09-.08-.08-.14-.16-.16-.15-.17-.08-.09-.07-.09-.1-.16c-.08-.13-.18-.25-.26-.38a6.59 6.59 0 0 1-.82-1.71 8.08 8.08 0 0 1-.24-1 8.8 8.8 0 0 1-.1-1 9.37 9.37 0 0 1 .23-2.7 5 5 0 0 1 .5-1.26 2.82 2.82 0 0 1 .18-.29l.21-.28.23-.26c.09-.09.18-.16.27-.24a.09.09 0 0 0 0-.12.08.08 0 0 0-.2-.01z"/><path class="cls-1" d="M16 35.08a7.37 7.37 0 0 0-1.43 1.68 9.8 9.8 0 0 0-.94 2 14.52 14.52 0 0 0-.71 4.35 13.2 13.2 0 0 0 .59 4.21 12.83 12.83 0 0 0 .79 1.93A11.07 11.07 0 0 0 15.42 51 12.65 12.65 0 0 0 17 52.66 13 13 0 0 0 18.73 54a11.52 11.52 0 0 0 4 1.55 11.89 11.89 0 0 0 4.41 0 11.05 11.05 0 0 0 4.19-1.78l.3-.21.22-.15.26-.2c.2-.14.4-.33.64-.52s.49-.45.75-.72a12.22 12.22 0 0 0 1.62-2.06 11.94 11.94 0 0 0 .73-1.38c.13-.24.22-.51.33-.77s.09-.27.14-.41l.07-.2.06-.22c0-.14.09-.28.12-.43l.11-.44.09-.46c0-.15.05-.31.07-.47a11.35 11.35 0 0 0 .16-2 12.27 12.27 0 0 0-3.06-7.91l-.43-.47-.51-.53-1-1.07L30.13 31C19.83 19.48 9.66 8.36 9.05 8.69c-.25.13 6 7.15 6.3 7.53 1.4 1.86 4 5 7.24 8.83C24.2 26.94 26 29 27.78 31.11l2.79 3.22L32 36l.16.18.15.16c.09.11.21.23.27.31l.23.28.21.29a10.34 10.34 0 0 1 1.93 5.16 9.83 9.83 0 0 1 0 1.32v1.27a10.78 10.78 0 0 1-1.58 4.18 11.65 11.65 0 0 1-1.11 1.43l-.27.29-.28.27-.13.12-.13.12-.24.22c-.17.12-.31.25-.45.36l-.37.28a10.24 10.24 0 0 1-5.41 2A10.82 10.82 0 0 1 22 54a5.94 5.94 0 0 1-.7-.17l-.35-.1-.34-.11a10.62 10.62 0 0 1-1.34-.62c-.22-.1-.42-.23-.64-.35l-.31-.2-.15-.09-.17-.07-.3-.22-.29-.23-.15-.11-.14-.13-.28-.24-.27-.26-.12-.1-.13-.14-.25-.27-.24-.29-.13-.14-.11-.16-.23-.3c-.14-.21-.29-.41-.42-.63a11.42 11.42 0 0 1-1.7-6 13.8 13.8 0 0 1 .59-4.22 8.79 8.79 0 0 1 .87-1.93c.1-.15.19-.31.29-.45l.33-.44.36-.41.4-.38a.11.11 0 0 0 0-.15S16 35 16 35.08z"/><path class="cls-1" d="M12.9 32.07a11.23 11.23 0 0 0-1.9 2.28A13.86 13.86 0 0 0 9.66 37a18.5 18.5 0 0 0-1.07 5.88 17.05 17.05 0 0 0 1.89 8.38 15.75 15.75 0 0 0 1.6 2.47 16.44 16.44 0 0 0 10 6.05 16.26 16.26 0 0 0 5.94-.07 15.43 15.43 0 0 0 5.7-2.41l.4-.28.3-.21.35-.27c.26-.19.54-.44.86-.71s.66-.6 1-1a16.62 16.62 0 0 0 2.17-2.8 18 18 0 0 0 1-1.86c.15-.34.29-.69.43-1 .06-.18.12-.37.19-.55l.09-.28.08-.29c.05-.19.12-.38.16-.58l.14-.6c0-.2.08-.41.12-.62a6 6 0 0 0 .09-.63 15 15 0 0 0 .18-2.62 16.7 16.7 0 0 0-1.08-5.52 16.93 16.93 0 0 0-3.08-5.11l-.51-.54c-.17-.18-.32-.36-.48-.54l-1-1.07L33.24 28C23 16.56 12.83 5.47 12.23 5.8c-.26.13 6 7.13 6.28 7.51 1.39 1.85 4 5 7.21 8.8 1.61 1.89 3.36 3.94 5.18 6.05l2.78 3.21L35.09 33c.11.14.23.26.35.39s.24.26.34.39l.32.39c.11.13.2.27.3.41a14.38 14.38 0 0 1 1.91 3.5 14.8 14.8 0 0 1 .89 3.76 16.63 16.63 0 0 1 .08 1.86c0 .3 0 .61-.05.9s0 .3 0 .45l-.06.44a14.3 14.3 0 0 1-.86 3.26 14.61 14.61 0 0 1-1.36 2.68 16.09 16.09 0 0 1-1.57 2l-.39.41-.39.37-.18.18-.18.16-.35.31c-.24.18-.44.36-.64.5l-.52.39A14.46 14.46 0 0 1 25 58.48a15.72 15.72 0 0 1-4-.31c-.33-.08-.66-.15-1-.25l-.49-.15-.51-.17a14.66 14.66 0 0 1-1.86-.83c-.3-.15-.59-.33-.88-.5l-.43-.27-.22-.14-.2-.16-.42-.3-.4-.32-.2-.17-.19-.17-.39-.34-.36-.4-.19-.18-.17-.19-.35-.38-.34-.41-.16-.2-.16-.21-.31-.43c-.19-.29-.4-.58-.57-.88A15.7 15.7 0 0 1 9 42.83a18.25 18.25 0 0 1 .94-5.73 13.11 13.11 0 0 1 1.25-2.62c.13-.2.26-.41.41-.61l.44-.58.49-.56c.17-.18.35-.35.53-.52s.09-.14.06-.18-.12-.03-.22.04z"/><path class="cls-1" d="M9.83 29.06A15.11 15.11 0 0 0 7.42 32a17.88 17.88 0 0 0-1.69 3.32 22.74 22.74 0 0 0-1.43 7.36 20.91 20.91 0 0 0 .21 3.74 21 21 0 0 0 2.19 6.86 19.73 19.73 0 0 0 2 3.13 21.32 21.32 0 0 0 2.7 2.79 20.74 20.74 0 0 0 3.06 2.22 20.27 20.27 0 0 0 10.71 2.88 20 20 0 0 0 3.76-.4 19.37 19.37 0 0 0 7.2-3l.51-.35.37-.27.45-.34c.33-.24.68-.55 1.08-.89s.82-.75 1.26-1.22a21.35 21.35 0 0 0 2.73-3.54 22.63 22.63 0 0 0 1.24-2.36c.19-.42.36-.87.54-1.32l.23-.69.12-.36.1-.36c.07-.24.14-.49.2-.74l.17-.75c.06-.26.1-.51.15-.77s.08-.53.12-.79a20.06 20.06 0 0 0 .17-3.31 21 21 0 0 0-5.27-13.38l-.58-.62-.07-.08-.06-.06-.12-.14-.24-.26-.95-1.08-1.92-2.14C26.11 13.63 16 2.57 15.4 2.9c-.26.13 6 7.11 6.26 7.49 1.39 1.85 4 5 7.2 8.78 1.59 1.89 3.34 3.93 5.16 6l2.77 3.2 1.4 1.63.19.21.21.22c.13.15.26.29.4.47l.42.5c.14.17.26.35.4.52a19.16 19.16 0 0 1 2.48 4.52 18.68 18.68 0 0 1 1.17 4.84 19.46 19.46 0 0 1 .11 2.4c0 .4 0 .79-.06 1.17v.58l-.08.57a19.08 19.08 0 0 1-2.85 7.69 19.2 19.2 0 0 1-2 2.64l-.5.53-.5.48-.23.23-.24.2-.45.4-.82.65-.69.5a20.29 20.29 0 0 1-2.31 1.4 21.2 21.2 0 0 1-2.47 1 19 19 0 0 1-5.18 1 19.37 19.37 0 0 1-5.2-.44c-.42-.11-.85-.2-1.26-.33L18 61.8l-.61-.22A19 19 0 0 1 15 60.5c-.39-.2-.76-.44-1.13-.66l-.55-.36-.27-.19-.27-.19-.53-.39-.5-.42-.26-.21-.24-.22-.49-.44-.46-.42-.23-.24-.22-.24L9.4 56l-.4-.54-.21-.26-.2-.27-.39-.55c-.25-.37-.5-.74-.73-1.13a20 20 0 0 1-2.81-10.63A25.21 25.21 0 0 1 5 38.9a20.41 20.41 0 0 1 1-3.53 17.94 17.94 0 0 1 1.62-3.29c.17-.26.34-.52.52-.77l.57-.74c.2-.23.4-.47.61-.7l.68-.67c.08-.07.11-.17.08-.21s-.16.01-.25.07z"/><path class="cls-1" d="M6.77 26.05a19.28 19.28 0 0 0-2.9 3.49 21.66 21.66 0 0 0-2.07 4 26.8 26.8 0 0 0-1.78 9A25.88 25.88 0 0 0 .25 47a26.23 26.23 0 0 0 1 4.27 25.39 25.39 0 0 0 1.69 4 24.34 24.34 0 0 0 2.47 3.79c.25.31.51.6.76.9l.39.44.4.42.2.21.21.21.41.4c.27.27.56.52.85.78a26.28 26.28 0 0 0 3.71 2.68 24.51 24.51 0 0 0 8.47 3.1 24.94 24.94 0 0 0 4.49.34 24.15 24.15 0 0 0 4.53-.49 23.76 23.76 0 0 0 8.71-3.67l.61-.42.45-.33.54-.41c.39-.3.82-.66 1.3-1.08s1-.9 1.51-1.47a25.14 25.14 0 0 0 3.29-4.27 26.39 26.39 0 0 0 1.49-2.86c.23-.51.44-1 .64-1.59.1-.27.19-.56.29-.84l.14-.43.12-.43c.08-.29.17-.59.24-.89l.21-.91c.06-.31.11-.62.17-.93s.1-.63.14-1a26.08 26.08 0 0 0 .2-4 25.21 25.21 0 0 0-1.67-8.34 25.24 25.24 0 0 0-4.7-7.71c-.22-.24-.44-.47-.65-.71l-.09-.08v-.07l-.12-.13-.24-.27-1-1.07L39.5 22C29.25 10.71 19.17-.32 18.57 0c-.26.13 6 7.09 6.24 7.47 1.39 1.84 4 5 7.18 8.76 1.59 1.88 3.33 3.91 5.14 6l2.76 3.19 1.41 1.61v.05l.12.12.23.25.22.26.06.06.13.15.51.62c.17.2.33.42.49.63a23.19 23.19 0 0 1 4.66 11.63 22.43 22.43 0 0 1 .14 2.94c0 .48 0 1-.07 1.43 0 .24 0 .47-.06.71l-.09.69A23.52 23.52 0 0 1 44.15 56a24.3 24.3 0 0 1-2.5 3.24l-.62.65c-.2.21-.41.4-.6.59l-.3.27-.29.26-.55.48c-.37.29-.7.57-1 .8l-.84.61a23.67 23.67 0 0 1-2.86 1.7 22.92 22.92 0 0 1-3 1.26 23.61 23.61 0 0 1-12.68.6c-.52-.13-1-.25-1.55-.41-.25-.08-.51-.15-.76-.24l-.76-.28a24.57 24.57 0 0 1-2.91-1.33c-.47-.25-.92-.54-1.38-.82-.23-.14-.45-.29-.67-.44l-.33-.23-.32-.23-.69-.48-.62-.5-.31-.26-.29-.24-.59-.54-.57-.57-.28-.29-.27-.3-.54-.61-.51-.63-.25-.32-.25-.33c-.16-.22-.32-.44-.47-.67-.3-.45-.61-.91-.88-1.39A24.24 24.24 0 0 1 .37 42.41a30.08 30.08 0 0 1 .47-4.5A26 26 0 0 1 2 33.64a21.32 21.32 0 0 1 2-4c.2-.31.41-.63.63-.93s.45-.6.68-.89.49-.57.74-.85.53-.55.8-.81C7 26.1 7 26 7 26s-.13-.06-.23.05z"/></svg>