<svg width="40" height="40" xmlns="http://www.w3.org/2000/svg"><g fill="none" fill-rule="evenodd" opacity=".8"><circle fill="#FFF" cx="20" cy="20" r="20"/><path d="M20 0C8.954167 0 0 8.9541667 0 20s8.954167 20 20 20 20-8.9541667 20-20S31.045833 0 20 0zm-4.895833 28.2895833h-4.05V15.25625h4.05v13.0333333zm-2.05-14.6333333c-1.279167 0-2.10625-.90625-2.10625-2.0270833 0-1.14375.852083-2.0229167 2.158333-2.0229167s2.10625.8791667 2.13125 2.0229167c0 1.1208333-.825 2.0270833-2.183333 2.0270833zm16.841666 14.6333333h-4.05v-7.2229166c0-1.68125-.5875-2.8229167-2.052083-2.8229167-1.11875 0-1.783333.7729167-2.077083 1.5166667-.108334.2645833-.135417.6395833-.135417 1.0125V28.2875h-4.052083v-8.875c0-1.6270833-.052084-2.9875-.10625-4.1583333h3.51875l.185416 1.8104166h.08125c.533334-.85 1.839584-2.1041666 4.025-2.1041666 2.664584 0 4.6625 1.7854166 4.6625 5.6229166v7.70625z" fill="#BBB" fill-rule="nonzero"/></g></svg>