<svg id="logo-mobile" xmlns="http://www.w3.org/2000/svg" width="127" height="54" viewBox="0 0 127 54"><style>.st0{fill:#e35c29}.st1{fill:#242121}.st7{fill:#e67044}.st9{fill:#e66e41}</style><g id="Mobile-Header"><path class="st0" d="M18.9 35.5c-1.5 3-2.2 6.2-2.2 9.5 0 9.2 6.6 17 15.6 18.6 9.5 1.6 19.2-4.9 21.2-14.4 1.3-6.2-.3-11.6-4.4-16.4-4.5-5.2-8.8-10.5-13.3-15.7-1.5-1.8-3-3.5-4.5-5.3-.2-.2-.3-.4-.4-.6l.1-.1c.3.2.6.5.9.7 3 3.1 5.9 6.2 8.8 9.3 3.3 3.6 6.5 7.1 9.7 10.8 3.8 4.3 5.5 9.4 4.9 15.2-.4 4.6-2.3 8.6-5.6 11.9-3.4 3.4-7.5 5.5-12.4 5.9h-3c-.6-.1-1.2-.1-1.8-.2-8.1-1.3-14.8-8.1-16-16.2-.1-.6-.2-1.3-.3-1.9v-2.8c.1-.7.2-1.5.3-2.2.4-2.2 1-4.3 2.2-6.3.1.2.2.2.2.2z" transform="translate(-15 -11)"/><path class="st1" d="M140.9 50.2c-.2 0-.4-.1-.6-.1h-9V28h2v20.2h7.6v2z" transform="translate(-15 -11)"/><path d="M34.5 65.1s0-.1 0 0c1-.1 2-.1 2.9-.1v.1h-2.9z" fill="#f2b7a0" transform="translate(-15 -11)"/><path class="st0" d="M22.5 36.1c-1.9 2.9-2.6 6.2-2.5 9.6.2 7.5 6.2 13.9 13.6 14.7 8.2.9 15.9-5.2 16.7-13.4.5-4.5-.9-8.4-3.8-11.9L33.3 19.5c-1.5-1.8-3.1-3.6-4.6-5.4-.1-.2-.3-.3-.4-.5l.1-.1c.4.3.8.6 1.1 1 3.5 3.7 7 7.4 10.4 11.1l7.8 8.7C54.3 41.6 53 53 45 58.7c-9.4 6.9-22.9 1.3-25-10.3-.8-4.2-.2-8.2 2.1-12 .1-.2.2-.3.3-.5.1.1.1.1.1.2z" transform="translate(-15 -11)"/><path d="M105.4 50.1c3.2-7.7 6.5-15.3 9.7-23 3.1 7.7 6.2 15.3 9.3 23h-2c-.1 0-.3-.3-.4-.5-.8-2.2-1.6-4.3-2.4-6.5-.1-.4-.3-.5-.7-.5H111c-.4 0-.6.1-.8.5-.8 2.2-1.7 4.3-2.5 6.5-.2.4-.4.5-.8.5h-1.5zm9.6-18.7c-1.3 3.3-2.6 6.4-3.9 9.5h7.6c-1.2-3.2-2.4-6.3-3.7-9.5z" fill="#262424" transform="translate(-15 -11)"/><path class="st0" d="M26 15.9c.2.1.5.2.6.3 1.8 1.8 3.6 3.5 5.3 5.4 4.6 5 9.1 9.9 13.6 15 3.3 3.8 4.2 8.3 2.5 13-1.7 4.7-5.1 7.6-10.1 8.5-6.5 1.2-13.1-3.3-14.5-9.9-.6-3-.4-5.9.8-8.7l.3-.6.1.1c-.9 2-1.3 4.2-1.3 6.4.1 5.7 4.7 10.8 10.2 11.6 6.6.9 12.3-3.9 13.3-9.7.6-3.5-.2-6.8-2.5-9.6-4.6-5.6-9.3-11.1-14-16.6-1.4-1.6-2.8-3.2-4.1-4.9 0 0-.1-.2-.2-.3z" transform="translate(-15 -11)"/><path class="st1" d="M93 40.3v9.8h-2V28c2.4.1 4.8 0 7.1.2 2.5.3 4.3 2.2 4.5 4.8.1 1 .1 2.1-.2 3.1-.5 2.4-2.3 3.5-4.5 3.8-1.6.3-3.2.3-4.9.4zm0-1.8c1.4-.1 2.6-.1 3.9-.2.4 0 .7-.1 1-.2 1.3-.3 2.2-1.2 2.4-2.5.1-.7.1-1.4.1-2.1-.2-1.9-1.3-3.3-3.1-3.5-1.4-.2-2.9-.2-4.3-.3v8.8z" transform="translate(-15 -11)"/><path d="M27.8 40.3c-1.5 3.1-1.6 6.3.2 9.3 1.8 3 4.6 4.5 8.2 4.1 3.4-.4 5.7-2.3 7-5.4 1.3-3.2.6-6.1-1.6-8.7-4.4-5.2-8.8-10.4-13.1-15.6-1.4-1.7-2.9-3.4-4.3-5.1-.2-.2-.4-.5-.6-.8l.1-.1c.2.2.5.3.7.5 2.4 2.5 4.9 5 7.3 7.6 3.8 4.1 7.5 8.3 11.2 12.4 5.2 5.7 2.2 14.5-5 16.1-5.2 1.2-10.5-2.6-11.2-7.9-.3-2.2-.1-4.4 1-6.5 0-.1.1-.2.2-.2-.1.2-.1.2-.1.3z" fill="#e35c2a" transform="translate(-15 -11)"/><path class="st0" d="M21.2 20.3c.5.4 1 .9 1.5 1.4 3.6 3.9 7.3 7.8 10.9 11.7 2.3 2.5 4.6 5.1 6.9 7.7 1.6 1.8 2.1 3.9 1.3 6.1-.7 2.3-2.3 3.8-4.7 4.3-3.5.8-7-1.9-7.2-5.5-.1-1.3-.1-2.6.6-3.8.1-.3.4-.5.5-.8l.1.1c-.1.2-.3.4-.4.6-1.8 3 0 7.4 3.4 8.2 2.1.5 4.4-.5 5.5-2.5 1.1-1.9.9-4.2-.6-5.9-4.4-5.2-8.8-10.5-13.2-15.7-1.4-1.7-2.9-3.4-4.3-5.1-.2-.2-.4-.5-.6-.7.2 0 .2-.1.3-.1z" transform="translate(-15 -11)"/><path d="M61.9 48.4c.5-.4.9-.8 1.4-1.3.2.2.3.4.5.5.6.4 1.1.9 1.7 1 1.6.4 2.8-.4 3.1-2.1.1-.7.2-1.5.2-2.2V28.6 28h2v17.5c0 .6-.1 1.3-.2 1.9-.5 1.9-1.7 3-3.8 3.2-2 .4-4-.5-4.9-2.2z" fill="#252222" transform="translate(-15 -11)"/><path d="M77.9 43v-1.9H84V43h-6.1z" fill="#2a2727" transform="translate(-15 -11)"/><path class="st7" d="M18.9 35.5l-.1-.1c.6-1.2 1.4-2.2 2.3-3.1-.7 1.1-1.4 2.2-2.2 3.2z" transform="translate(-15 -11)"/><path d="M24.7 39l-.1-.1c.5-1 1.1-1.8 2-2.5-.7.9-1.3 1.8-1.9 2.6z" fill="#e67145" transform="translate(-15 -11)"/><path class="st9" d="M22.5 36.1l-.1-.1c.5-.6.9-1.1 1.4-1.7l.1.1c-.5.6-.9 1.1-1.4 1.7z" transform="translate(-15 -11)"/><path d="M27.8 40.3l-.1-.1c.4-.5.7-1 1.1-1.5.1 0 .1.1.2.1l-1.2 1.5z" fill="#e87b52" transform="translate(-15 -11)"/><path class="st9" d="M23.8 34.3l.3-.3.1.1-.3.3-.1-.1z" transform="translate(-15 -11)"/><path class="st7" d="M21.8 31.7l-.2.2s-.1 0-.1-.1c.1 0 .2-.1.3-.1 0-.1 0 0 0 0zM21.2 32c.1 0 .2-.1.3-.1l.1.1c-.1.1-.1.2-.2.2l-.2-.2z" transform="translate(-15 -11)"/><path class="st0" d="M26 15.9c0-.1 0-.1 0 0 0-.1 0-.1 0 0 0-.1 0-.1 0 0z" transform="translate(-15 -11)"/></g></svg>