<svg width="40" height="40" xmlns="http://www.w3.org/2000/svg"><g transform="translate(-.000007)" fill="none" fill-rule="evenodd" opacity=".8"><circle fill="#FFF" cx="20.0000065" cy="20" r="20"/><path d="M30.9506536 15.2657059c-.4224183.5780392-.9480393 1.0721568-1.5771242 1.4815686-2.0918301 1.3528105-3.6703268 2.3741177-4.7421569 3.0680392-.5890196.3811111-1.0271242.664902-1.3083006.8471896-.0416994.0273202-.1067974.0704575-.1933334.1283006-.0931372.0620915-.2110457.1413072-.3562091.2391503-.2801307.1887582-.5128105.3413072-.6981046.4579085-.1856863.1162746-.4096078.2467974-.6724183.391438-.2630719.1446405-.5107843.2530065-.7433987.3252287-.2328105.0722222-.4482353.1084314-.6464052.1084314h-.0257517c-.1981699 0-.4136601-.0362092-.6463398-.1084314-.2326798-.0722222-.4805883-.1807843-.7434641-.3252287-.2630719-.1446406-.4872549-.2748366-.6723529-.391438-.1853595-.1166013-.4180392-.2691503-.6981046-.4579085-.1454248-.0978431-.2633333-.1769934-.3565359-.2393464-.0864706-.057647-.151634-.1010457-.1930719-.1281045-.3608497-.236536-.7979739-.5215033-1.3048366-.8505229-.5945752-.3864706-1.286536-.8342484-2.0822223-1.3480392-1.4739869-.9515033-2.3574509-1.5237909-2.6503921-1.7166667-.5344445-.3372549-1.0386928-.8008497-1.5126144-1.3911765-.4739215-.5904575-.7109803-1.1385621-.7109803-1.6444444 0-.6262745.1786274-1.1484314.5365359-1.5660131.3575163-.4173202.8679739-.6262745 1.5318954-.6262745h19.0300653c.5602615 0 1.0451634.1887582 1.4547059.5660784.4090196.3777778.613987.8313726.613987 1.361438 0 .6344444-.2113726 1.2407843-.6330719 1.8188235zm.6330719 11.0281046l-5.7829412-5.3886275c1.232549-.8020261 2.7292157-1.7581046 4.4901307-2.8686928.4911765-.3132026.9220261-.6624183 1.2928105-1.0481046v9.3054249zm-2.0686929 2.1867973H10.4849019c-.5207189 0-.9722875-.160196-1.355817-.4766013l6.5649674-6.1177777c.164183.1098692.3160784.2124836.4530065.3060784.4915033.3371895.8899346.6003268 1.1960131.7888889.305817.1889542.7130065.3815686 1.2216993.5782353.5086275.1969934.982549.295098 1.4222222.295098h.0257517c.4396078 0 .9135294-.0981699 1.4222222-.295098.508366-.1966667.9156209-.3892811 1.2216993-.5782353.3061438-.1885621.7047713-.4516994 1.1959477-.7888889.144183-.0971896.2968628-.1993464.4543138-.3044445l6.5637255 6.1161438c-.3835948.3164053-.8348366.4766013-1.355621.4766013zM8.4162746 16.9883856c.3792156.3935948.8147712.7430066 1.3058823 1.0481046 1.8307842 1.159281 3.3219607 2.1136601 4.4793463 2.8665359l-5.7852287 5.3905883v-9.3052288zM38.42 12.2200196c-1.0533334-2.44-2.48-4.56-4.28-6.36-1.8-1.8-3.92-3.2266667-6.36-4.28-2.44-1.0533333-5.0333334-1.58-7.78-1.58-1.84 0-3.6133334.24-5.32.72-1.7066667.48-3.3 1.1533333-4.78 2.02-1.48.8666667-2.8266667 1.9066667-4.04 3.12-1.2133333 1.2133333-2.2533333 2.56-3.12 4.04-.8666667 1.48-1.54 3.0733333-2.02 4.78-.48 1.7066667-.72 3.48-.72 5.32 0 1.84.24 3.6133333.72 5.3199346.48 1.7067321 1.1533333 3.2999347 2.02 4.7800654.8666667 1.48 1.9066667 2.8267974 3.12 4.04 1.2133333 1.2133333 2.56 2.2533333 4.04 3.12 1.48.8666667 3.0733333 1.5398039 4.78 2.02 1.7066666.48 3.48.72 5.32.72 1.84 0 3.6133333-.24 5.3198692-.72 1.7067974-.48 3.3-1.1533333 4.7801308-2.02 1.48-.8664706 2.8267973-1.9066667 4.04-3.12 1.2133333-1.2133333 2.2533333-2.56 3.12-4.04.8666666-1.4801961 1.5398039-3.0735294 2.02-4.78.48-1.7066667.72-3.48.72-5.32 0-2.7466667-.5266667-5.34-1.58-7.78z" fill="#BBB" fill-rule="nonzero"/></g></svg>